HIERARCHY
ROOT Hips
{
	OFFSET	0.00	0.00	0.00
	CHANNELS 6 Xposition Yposition Zposition Zrotation Xrotation Yrotation
	JOINT LeftUpLeg
	{
		OFFSET	 0.126116	-0.065224	 0.014019
		CHANNELS 3 Zrotation Xrotation Yrotation
		JOINT LeftLeg
		{
			OFFSET	 0.000000	 0.569914	 0.000000
			CHANNELS 3 Zrotation Xrotation Yrotation
			JOINT LeftFoot
			{
				OFFSET	 0.000000	 0.544423	 0.000000
				CHANNELS 3 Zrotation Xrotation Yrotation
				JOINT LeftToeBase
				{
					OFFSET	 0.000000	 0.207117	 0.000000
					CHANNELS 3 Zrotation Xrotation Yrotation
					End Site
					{
						OFFSET	 0.000000	 0.207117	 0.000000
					}
				}
			}
		}
	}
	JOINT RightUpLeg
	{
		OFFSET	-0.124023	-0.065224	 0.008373
		CHANNELS 3 Zrotation Xrotation Yrotation
		JOINT RightLeg
		{
			OFFSET	 0.000000	 0.570047	 0.000000
			CHANNELS 3 Zrotation Xrotation Yrotation
			JOINT RightFoot
			{
				OFFSET	 0.000000	 0.544354	 0.000000
				CHANNELS 3 Zrotation Xrotation Yrotation
				JOINT RightToeBase
				{
					OFFSET	 0.000000	 0.207540	 0.000000
					CHANNELS 3 Zrotation Xrotation Yrotation
					End Site
					{
						OFFSET	 0.000000	 0.207540	 0.000000
					}
				}
			}
		}
	}
	JOINT Spine
	{
		OFFSET	 0.000184	 0.117403	 0.007763
		CHANNELS 3 Zrotation Xrotation Yrotation
		JOINT Spine1
		{
			OFFSET	 0.000000	 0.137269	 0.000000
			CHANNELS 3 Zrotation Xrotation Yrotation
			JOINT Spine2
			{
				OFFSET	 0.000000	 0.156879	 0.000000
				CHANNELS 3 Zrotation Xrotation Yrotation
				JOINT LeftShoulder
				{
					OFFSET	 0.080501	 0.160143	 0.002496
					CHANNELS 3 Zrotation Xrotation Yrotation
					JOINT LeftArm
					{
						OFFSET	 0.000000	 0.164363	 0.000000
						CHANNELS 3 Zrotation Xrotation Yrotation
						JOINT LeftForeArm
						{
							OFFSET	 0.000000	 0.364576	 0.000000
							CHANNELS 3 Zrotation Xrotation Yrotation
							JOINT LeftHand
							{
								OFFSET	 0.000000	 0.360812	 0.000000
								CHANNELS 3 Zrotation Xrotation Yrotation
								JOINT LeftHandIndex1
								{
									OFFSET	 0.000000	 0.086006	 0.000000
									CHANNELS 3 Zrotation Xrotation Yrotation
									JOINT LeftHandIndex2
									{
										OFFSET	 0.000000	 0.047237	 0.000000
										CHANNELS 3 Zrotation Xrotation Yrotation
										JOINT LeftHandIndex3
										{
											OFFSET	-0.004284	 0.038165	 0.000551
											CHANNELS 3 Zrotation Xrotation Yrotation
											End Site
											{
												OFFSET	-0.004284	 0.038165	 0.000551
											}
										}
									}
								}
							}
						}
					}
				}
				JOINT Neck
				{
					OFFSET	 0.000000	 0.176489	 0.000000
					CHANNELS 3 Zrotation Xrotation Yrotation
					JOINT Head
					{
						OFFSET	 0.000000	 0.077941	 0.001747
						CHANNELS 3 Zrotation Xrotation Yrotation
						End Site
						{
							OFFSET	 0.000000	 0.077941	 0.001747
						}
					}
				}
				JOINT RightShoulder
				{
					OFFSET	-0.080363	 0.159706	-0.000306
					CHANNELS 3 Zrotation Xrotation Yrotation
					JOINT RightArm
					{
						OFFSET	 0.000000	 0.164196	 0.000000
						CHANNELS 3 Zrotation Xrotation Yrotation
						JOINT RightForeArm
						{
							OFFSET	 0.000000	 0.365611	 0.000000
							CHANNELS 3 Zrotation Xrotation Yrotation
							JOINT RightHand
							{
								OFFSET	 0.000000	 0.360648	 0.000000
								CHANNELS 3 Zrotation Xrotation Yrotation
								JOINT RightHandIndex1
								{
									OFFSET	 0.000000	 0.069977	 0.000000
									CHANNELS 3 Zrotation Xrotation Yrotation
									JOINT RightHandIndex2
									{
										OFFSET	 0.000000	 0.052305	 0.000000
										CHANNELS 3 Zrotation Xrotation Yrotation
										JOINT RightHandIndex3
										{
											OFFSET	 0.009002	 0.042196	 0.000782
											CHANNELS 3 Zrotation Xrotation Yrotation
											End Site
											{
												OFFSET	 0.009002	 0.042196	 0.000782
											}
										}
									}
								}
							}
						}
					}
				}
			}
		}
	}
}
MOTION
Frames:    5
Frame Time: 0.03333334
-0.017476	 1.255381	 0.115119	 4.799002	 0.248628	 173.955700	-170.471400	 16.164650	 6.901136	 2.466611	-25.022460	 1.125876	 46.156010	 46.681070	-62.979890	 4.912823	 28.009660	-6.307258	-172.765900	 4.899525	-1.083926	-1.717355	-19.174270	 1.883757	-57.138030	 58.383210	 63.645310	-0.375988	 31.171040	 1.632538	 1.348827	 3.923551	-9.688491	 9.945942	 8.581590	-5.518581	-8.578700	-6.640401	 17.970580	-112.569700	 3.136271	 88.315250	 55.581050	 35.684560	-24.285840	 4.326970	-0.227404	 0.619552	-34.175040	 8.694219	-65.558300	-8.021874	 12.505600	-5.832071	-7.228718	 12.664960	 2.804141	 4.963066	-4.014628	-0.346955	 1.524998	-13.925100	 1.349625	-2.032657	 8.886123	-23.852950	 109.133700	 0.668444	-88.592030	-11.579650	 62.692160	 11.222230	-5.077869	-0.473948	 41.350780	-9.000503	 13.582920	-85.934430	 2.018881	 8.317655	 8.960763	 15.202870	 20.245000	-6.343101	-8.239867	-2.131385	 0.447455
-0.017481	 1.255282	 0.115158	 4.766641	 0.159562	 173.977500	-170.322900	 16.319100	 6.054851	 2.470199	-25.054290	 1.138212	 46.176910	 46.568840	-62.844250	 4.912824	 28.009660	-6.307253	-172.924900	 5.075326	-0.231493	-1.729896	-19.304000	 1.852731	-57.306420	 58.433400	 63.842200	-0.378217	 31.173770	 1.634749	 1.312823	 3.847348	-9.469682	 9.907333	 8.453578	-5.511144	-8.529184	-6.553057	 17.959960	-112.557000	 3.120379	 88.313060	 55.386670	 35.747470	-24.160330	 4.348288	-0.226502	 0.794502	-34.090930	 8.705051	-65.442150	-8.007269	 12.517570	-5.835684	-7.228786	 12.662180	 2.803762	 4.963066	-4.014628	-0.346955	 1.511913	-13.905210	 1.356311	-2.026297	 8.942713	-23.893840	 109.117900	 0.680553	-88.598180	-11.408100	 62.569970	 11.117030	-5.078447	-0.493161	 41.136310	-8.825408	 13.679120	-85.969160	 2.006310	 8.283746	 8.960466	 15.202920	 20.252520	-6.345159	-8.239867	-2.131385	 0.447455
-0.017463	 1.255203	 0.115173	 4.708569	 0.055056	 174.026500	-170.203500	 16.480980	 5.231176	 2.470478	-25.056820	 1.157328	 46.199260	 46.441590	-62.697500	 4.912825	 28.009670	-6.307247	-173.110400	 5.277009	 0.636382	-1.744364	-19.453250	 1.800770	-57.516740	 58.465970	 64.089280	-0.382154	 31.178580	 1.638653	 1.247026	 3.768145	-9.091455	 9.843777	 8.252966	-5.510711	-8.442087	-6.411507	 17.941590	-112.534600	 3.092367	 88.309220	 55.228540	 35.812470	-24.120990	 4.393304	-0.225322	 1.103266	-34.097150	 8.672941	-65.191760	-7.981482	 12.538710	-5.842071	-7.228902	 12.657280	 2.803092	 4.963066	-4.014628	-0.346955	 1.488810	-13.870110	 1.368124	-2.014940	 9.042603	-23.966110	 109.089900	 0.701908	-88.609010	-11.260140	 62.447370	 11.071020	-5.097206	-0.528830	 40.758240	-8.542835	 13.735720	-86.064900	 1.984118	 8.223885	 8.959924	 15.203010	 20.265800	-6.348793	-8.239867	-2.131385	 0.447455
-0.017455	 1.255091	 0.115146	 4.637006	-0.057240	 174.094800	-170.106400	 16.656250	 4.433417	 2.471727	-25.067890	 1.184765	 46.241000	 46.310980	-62.567460	 4.912827	 28.009680	-6.307238	-173.312400	 5.500418	 1.517446	-1.762011	-19.635000	 1.728558	-57.771010	 58.491720	 64.389100	-0.387757	 31.185420	 1.644210	 1.164733	 3.694447	-8.555262	 9.766121	 7.979572	-5.514470	-8.323438	-6.216376	 17.914960	-112.502800	 3.052479	 88.303760	 55.117620	 35.880110	-24.177660	 4.460620	-0.223715	 1.542677	-34.199600	 8.600121	-64.809310	-7.944778	 12.568790	-5.851177	-7.229069	 12.650300	 2.802139	 4.963066	-4.014628	-0.346955	 1.455926	-13.820170	 1.384957	-1.998491	 9.184711	-24.069090	 109.050100	 0.732342	-88.624440	-11.131390	 62.316350	 11.079140	-5.136566	-0.580349	 40.219440	-8.150970	 13.750880	-86.220950	 1.952541	 8.138693	 8.959115	 15.203140	 20.284700	-6.353965	-8.239867	-2.131385	 0.447455
-0.017460	 1.254940	 0.115060	 4.549876	-0.178455	 174.184500	-170.031300	 16.848150	 3.645494	 2.474252	-25.090350	 1.221089	 46.305130	 46.176020	-62.453250	 4.912829	 28.009700	-6.307225	-173.537000	 5.749142	 2.430824	-1.783467	-19.855450	 1.635079	-58.077170	 58.511940	 64.751240	-0.395164	 31.194480	 1.651556	 1.064716	 3.625914	-7.850042	 9.675524	 7.619863	-5.524206	-8.172133	-5.960214	 17.879000	-112.460700	 2.999775	 88.296590	 55.057110	 35.949680	-24.337900	 4.551992	-0.221796	 2.123279	-34.409220	 8.485711	-64.284320	-7.896256	 12.608530	-5.863243	-7.229289	 12.641070	 2.800880	 4.963066	-4.014628	-0.346955	 1.412456	-13.754170	 1.407242	-1.976236	 9.372445	-24.205440	 108.997500	 0.772571	-88.644790	-11.020010	 62.172790	 11.142600	-5.196365	-0.648898	 39.507860	-7.637892	 13.722760	-86.445210	 1.910819	 8.026110	 8.957973	 15.203310	 20.309670	-6.360801	-8.239867	-2.131385	 0.447455
